<svg width="77" height="73" viewBox="0 0 77 73" fill="none" xmlns="http://www.w3.org/2000/svg">
<path d="M0.167245 6.55364C-0.138523 6.09372 -0.0135595 5.47301 0.446358 5.16724L7.94115 0.184471C8.40107 -0.121297 9.02178 0.00366669 9.32755 0.463585C9.63332 0.923503 9.50836 1.54421 9.04844 1.84998L2.3864 6.27911L6.81553 12.9412C7.1213 13.4011 6.99633 14.0218 6.53642 14.3276C6.0765 14.6333 5.45579 14.5084 5.15002 14.0484L0.167245 6.55364ZM74.541 72.4966C76.4509 62.2307 70.4841 48.3736 57.6399 35.7303C44.8461 23.1365 25.3924 11.9308 0.802637 6.98033L1.19736 5.01967C26.1526 10.0437 45.961 21.4277 59.043 34.305C72.0746 47.1328 78.5974 61.6282 76.5073 72.8624L74.541 72.4966Z" fill="black"/>
</svg>
