<svg width="78" height="74" viewBox="0 0 78 74" fill="none" xmlns="http://www.w3.org/2000/svg">
<path d="M77.4989 7.00645C77.8046 6.54654 77.6797 5.92582 77.2198 5.62006L69.725 0.637284C69.2651 0.331516 68.6443 0.456479 68.3386 0.916397C68.0328 1.37632 68.1578 1.99703 68.6177 2.30279L75.2797 6.73193L70.8506 13.394C70.5448 13.8539 70.6698 14.4746 71.1297 14.7804C71.5896 15.0861 72.2103 14.9612 72.5161 14.5012L77.4989 7.00645ZM3.12513 72.9494C1.21519 62.6835 7.18203 48.8264 20.0262 36.1831C32.8201 23.5894 52.2737 12.3836 76.8635 7.43314L76.4688 5.47248C51.5135 10.4965 31.7051 21.8805 18.6232 34.7578C5.59149 47.5856 -0.931227 62.081 1.15887 73.3152L3.12513 72.9494Z" fill="black"/>
</svg>
